<?xml version="1.0" encoding="UTF-8" standalone="no"?>
<!-- Created with Inkscape (http://www.inkscape.org/) -->

<svg
   width="26.000481mm"
   height="78.000404mm"
   viewBox="0 0 26.000481 78.000406"
   version="1.1"
   id="svg1"
   xml:space="preserve"
   inkscape:version="1.4 (e7c3feb100, 2024-10-09)"
   sodipodi:docname="drawing.svg"
   xmlns:inkscape="http://www.inkscape.org/namespaces/inkscape"
   xmlns:sodipodi="http://sodipodi.sourceforge.net/DTD/sodipodi-0.dtd"
   xmlns="http://www.w3.org/2000/svg"
   xmlns:svg="http://www.w3.org/2000/svg"><sodipodi:namedview
     id="namedview1"
     pagecolor="#ffffff"
     bordercolor="#eeeeee"
     borderopacity="1"
     inkscape:showpageshadow="0"
     inkscape:pageopacity="0"
     inkscape:pagecheckerboard="0"
     inkscape:deskcolor="#737373"
     inkscape:document-units="mm"
     inkscape:zoom="1.4142136"
     inkscape:cx="180.66578"
     inkscape:cy="186.32264"
     inkscape:window-width="1920"
     inkscape:window-height="1144"
     inkscape:window-x="0"
     inkscape:window-y="36"
     inkscape:window-maximized="1"
     inkscape:current-layer="layer1"
     showguides="true"><sodipodi:guide
       position="13.000228,60.221625"
       orientation="-1,0"
       id="guide5"
       inkscape:locked="false"
       inkscape:label=""
       inkscape:color="rgb(0,134,229)" /></sodipodi:namedview><defs
     id="defs1" /><g
     inkscape:label="Layer 1"
     inkscape:groupmode="layer"
     id="layer1"
     transform="translate(-63.940471,45.268681)"><path
       id="rect6"
       style="fill:#000000;fill-opacity:0.2;stroke:none;stroke-width:0.513201;stroke-linecap:square;stroke-linejoin:round;stroke-dasharray:none;stroke-opacity:1;paint-order:normal"
       d="M 63.940471 -45.268681 L 63.940471 32.731726 L 89.940951 32.731726 L 89.940951 -45.268681 L 63.940471 -45.268681 z M 66.351693 -44.768453 L 76.440483 -44.768453 L 76.884384 -44.298714 L 76.884384 -8.2383831 L 76.440483 -7.7686444 L 74.675733 -7.7686444 L 74.675733 31.527665 C 74.675733 31.917565 74.3618 32.231498 73.9719 32.231498 L 67.379538 32.231498 C 66.989638 32.231498 66.675705 31.917565 66.675705 31.527665 L 66.675705 -7.7686444 L 66.586821 -7.7686444 C 65.528121 -7.7686444 64.440699 -8.6209488 64.440699 -9.6796388 L 64.440699 -42.857459 C 64.440699 -43.916149 65.292993 -44.768453 66.351693 -44.768453 z M 77.440939 -44.768453 L 87.529729 -44.768453 C 88.588429 -44.768453 89.440723 -43.916149 89.440723 -42.857459 L 89.440723 -9.6796388 C 89.440723 -8.6209488 88.588429 -7.7686444 87.529729 -7.7686444 L 77.440939 -7.7686444 L 76.997038 -8.2383831 L 76.997038 -44.298714 L 77.440939 -44.768453 z " /></g></svg>
